<svg width="1200" height="1800" viewBox="0 0 1200 1800" fill="none" xmlns="http://www.w3.org/2000/svg">
  <rect width="1200" height="1800" fill="#123847"/>
  <rect x="74" y="70" width="1052" height="1660" rx="42" fill="url(#paint0_linear)"/>
  <circle cx="926" cy="324" r="184" fill="url(#paint1_radial)" fill-opacity="0.65"/>
  <circle cx="214" cy="1452" r="220" fill="url(#paint2_radial)" fill-opacity="0.42"/>
  <path d="M100 146C274 202 362 314 498 442C676 606 742 798 992 910" stroke="#C1EFE3" stroke-opacity="0.16" stroke-width="2"/>
  <path d="M140 352C306 422 460 532 648 722C806 884 954 1044 1068 1228" stroke="#F6F1E7" stroke-opacity="0.12" stroke-width="2"/>
  <path d="M148 1042C322 1080 504 1168 690 1334C814 1446 900 1546 1028 1708" stroke="#E66A3F" stroke-opacity="0.14" stroke-width="2"/>
  <circle cx="624" cy="1058" r="236" stroke="#F4F7F8" stroke-opacity="0.14" stroke-width="2"/>
  <circle cx="624" cy="1058" r="314" stroke="#F4F7F8" stroke-opacity="0.08" stroke-width="2"/>
  <circle cx="624" cy="1058" r="146" fill="url(#paint3_linear)"/>
  <path d="M566 1112V986H616V1070H686V1112H566Z" fill="#FDF5EA"/>
  <path d="M706 1112V986H756V1112H706Z" fill="#FDF5EA"/>
  <g opacity="0.7">
    <circle cx="422" cy="772" r="10" fill="#C1EFE3"/>
    <circle cx="802" cy="642" r="10" fill="#E66A3F"/>
    <circle cx="834" cy="1280" r="10" fill="#C1EFE3"/>
    <circle cx="406" cy="1328" r="10" fill="#E66A3F"/>
  </g>
  <defs>
    <linearGradient id="paint0_linear" x1="156" y1="108" x2="1032" y2="1704" gradientUnits="userSpaceOnUse">
      <stop stop-color="#174556"/>
      <stop offset="1" stop-color="#0A202B"/>
    </linearGradient>
    <radialGradient id="paint1_radial" cx="0" cy="0" r="1" gradientUnits="userSpaceOnUse" gradientTransform="translate(926 324) rotate(90) scale(184)">
      <stop stop-color="#C1EFE3"/>
      <stop offset="1" stop-color="#C1EFE3" stop-opacity="0"/>
    </radialGradient>
    <radialGradient id="paint2_radial" cx="0" cy="0" r="1" gradientUnits="userSpaceOnUse" gradientTransform="translate(214 1452) rotate(90) scale(220)">
      <stop stop-color="#E66A3F"/>
      <stop offset="1" stop-color="#E66A3F" stop-opacity="0"/>
    </radialGradient>
    <linearGradient id="paint3_linear" x1="478" y1="884" x2="760" y2="1250" gradientUnits="userSpaceOnUse">
      <stop stop-color="#173B48"/>
      <stop offset="1" stop-color="#2E6B80"/>
    </linearGradient>
  </defs>
</svg>
